HIERARCHY
ROOT Hips
{
	OFFSET -0.001795 -0.223333 0.028219
	CHANNELS 6 Xposition Yposition Zposition Zrotation Yrotation Xrotation 
	JOINT LeftUpLeg
	{
		OFFSET 0.069520 -0.091406 -0.006815
		CHANNELS 3 Zrotation Yrotation Xrotation
		JOINT LeftLeg
		{
			OFFSET 0.034277 -0.375199 -0.004496
			CHANNELS 3 Zrotation Yrotation Xrotation
			JOINT LeftFoot
			{
				OFFSET -0.013596 -0.397961 -0.043693
				CHANNELS 3 Zrotation Yrotation Xrotation
				JOINT LeftToe
				{
					OFFSET 0.026358 -0.055791 0.119288
					CHANNELS 3 Zrotation Yrotation Xrotation
					End Site
					{
						OFFSET 0.000000 0.000000 0.000000
					}
				}
			}
		}
	}
	JOINT RightUpLeg
	{
		OFFSET -0.067670 -0.090522 -0.004320
		CHANNELS 3 Zrotation Yrotation Xrotation
		JOINT RightLeg
		{
			OFFSET -0.038290 -0.382569 -0.008850
			CHANNELS 3 Zrotation Yrotation Xrotation
			JOINT RightFoot
			{
				OFFSET 0.015774 -0.398415 -0.042312
				CHANNELS 3 Zrotation Yrotation Xrotation
				JOINT RightToe
				{
					OFFSET -0.025372 -0.048144 0.123348
					CHANNELS 3 Zrotation Yrotation Xrotation
					End Site
					{
						OFFSET 0.000000 0.000000 0.000000
					}
				}
			}
		}
	}
	JOINT Spine
	{
		OFFSET -0.002533 0.108963 -0.026696
		CHANNELS 3 Zrotation Yrotation Xrotation
		JOINT Spine1
		{
			OFFSET 0.005487 0.135180 0.001092
			CHANNELS 3 Zrotation Yrotation Xrotation
			JOINT Spine2
			{
				OFFSET 0.001457 0.052922 0.025425
				CHANNELS 3 Zrotation Yrotation Xrotation
				JOINT Neck
				{
					OFFSET -0.002778 0.213870 -0.042857
					CHANNELS 3 Zrotation Yrotation Xrotation
					JOINT Head
					{
						OFFSET 0.005152 0.064970 0.051349
						CHANNELS 3 Zrotation Yrotation Xrotation
						End Site
						{
							OFFSET 0.000000 0.000000 0.000000
						}
					}
				}
				JOINT LeftShoulder
				{
					OFFSET 0.078845 0.121749 -0.034090
					CHANNELS 3 Zrotation Yrotation Xrotation
					JOINT LeftArm
					{
						OFFSET 0.090977 0.030469 -0.008868
						CHANNELS 3 Zrotation Yrotation Xrotation
						JOINT LeftForeArm
						{
							OFFSET 0.259612 -0.012772 -0.027456
							CHANNELS 3 Zrotation Yrotation Xrotation
							JOINT LeftHand
							{
								OFFSET 0.249234 0.008986 -0.001171
								CHANNELS 3 Zrotation Yrotation Xrotation
								End Site
								{
									OFFSET 0.000000 0.000000 0.000000
								}
							}
						}
					}
				}
				JOINT RightShoulder
				{
					OFFSET -0.081759 0.118833 -0.038615
					CHANNELS 3 Zrotation Yrotation Xrotation
					JOINT RightArm
					{
						OFFSET -0.096012 0.032551 -0.009143
						CHANNELS 3 Zrotation Yrotation Xrotation
						JOINT RightForeArm
						{
							OFFSET -0.253742 -0.013329 -0.021401
							CHANNELS 3 Zrotation Yrotation Xrotation
							JOINT RightHand
							{
								OFFSET -0.255298 0.007772 -0.005559
								CHANNELS 3 Zrotation Yrotation Xrotation
								End Site
								{
									OFFSET 0.000000 0.000000 0.000000
								}
							}
						}
					}
				}
			}
		}
	}
}
MOTION
Frames: 15
Frame Time: 0.050000
0.000000 0.946911 0.000000 -1.766349 3.290427 3.855994 6.245831 -0.191702 -0.306805 2.027130 0.034637 -4.744930 11.694376 22.559630 28.780323 0.000000 0.000000 0.000000 -5.021401 0.349353 -3.920205 -0.841473 0.002384 -1.957641 -0.096363 -6.456004 18.625831 0.000000 0.000000 0.000000 0.852000 0.022976 -0.895393 1.184098 -0.542793 -0.457152 0.155426 -0.371601 -2.335126 1.124821 -0.033368 -8.469675 0.000000 0.000000 0.000000 -21.595834 -1.244466 -2.026592 -50.954116 -4.410707 -3.477053 -13.213791 -20.083584 2.960437 0.000000 0.000000 0.000000 19.421325 2.199718 -0.519099 54.328559 5.674428 -2.078137 9.019535 17.952073 1.816897 0.000000 0.000000 0.000000 
0.000071 0.945406 0.000264 -1.725275 2.122602 4.161593 5.675445 -0.151342 0.030382 2.756317 0.023783 -5.415684 12.458329 23.242984 29.132624 0.000000 0.000000 0.000000 -5.620585 0.374160 -4.188371 -0.013145 -0.094940 -2.440667 0.426231 -5.690099 18.220229 0.000000 0.000000 0.000000 0.802330 0.040693 -1.261994 0.075941 -0.017295 -0.618076 1.194600 -0.315970 -2.320920 0.498806 0.442232 -9.815531 0.000000 0.000000 0.000000 -22.127530 -0.017494 -2.540201 -51.116165 -4.433537 -3.533272 -13.800169 -20.522068 3.168759 0.000000 0.000000 0.000000 18.649773 1.946867 -0.811886 55.686563 5.656086 -2.091602 9.035014 18.544764 1.859551 0.000000 0.000000 0.000000 
0.000015 0.945107 0.000236 -1.577086 2.795700 4.243363 5.518869 -0.164844 -0.186084 2.873299 0.021284 -5.451023 12.079092 22.917889 28.778039 0.000000 0.000000 0.000000 -5.647318 0.383070 -4.523414 -0.182642 -0.051082 -1.748831 0.014389 -6.202564 17.993610 0.000000 0.000000 0.000000 0.483948 0.028781 -0.924782 0.460633 -0.122247 -2.401159 0.651994 -0.820408 -1.611864 0.534898 0.374335 -9.255082 0.000000 0.000000 0.000000 -21.473505 -0.236185 -2.322905 -51.431339 -4.609944 -3.549269 -13.966828 -19.824884 3.090648 0.000000 0.000000 0.000000 20.131904 2.290646 -0.712046 54.074386 5.004860 -2.405042 8.897743 18.653161 1.860639 0.000000 0.000000 0.000000 
-0.000102 0.944412 0.000135 -1.927486 2.629510 4.425155 5.557020 -0.180276 -0.516321 3.485940 -0.030927 -5.176226 12.297128 23.141281 28.672234 0.000000 0.000000 0.000000 -5.689181 0.437261 -5.524910 0.561911 -0.076331 -0.427296 0.010722 -6.151154 17.662772 0.000000 0.000000 0.000000 0.666667 0.035042 -1.128024 -0.442011 0.251655 -1.488118 2.004106 -1.583266 -2.707240 -0.329348 0.842425 -8.796119 0.000000 0.000000 0.000000 -21.405895 0.688285 -2.527136 -52.227286 -5.306357 -3.276859 -13.211131 -19.705606 2.981146 0.000000 0.000000 0.000000 19.132032 2.667667 -0.787957 54.355535 4.740114 -2.364488 9.154573 18.909287 1.875649 0.000000 0.000000 0.000000 
-0.000371 0.944432 -0.000052 -1.845661 3.218986 4.244204 5.484056 -0.183677 -0.535754 3.588845 -0.042831 -5.050099 11.936181 22.823486 28.393234 0.000000 0.000000 0.000000 -5.780172 0.412464 -5.273847 0.662466 -0.084666 -0.331775 -0.275129 -6.530907 17.653166 0.000000 0.000000 0.000000 0.528233 0.023288 -0.820415 0.009109 0.060298 -1.811492 1.427509 -1.513689 -2.436373 -0.658086 1.068205 -8.477397 0.000000 0.000000 0.000000 -21.351209 0.361814 -2.478522 -52.371912 -5.981423 -2.992552 -13.357589 -19.285453 2.919923 0.000000 0.000000 0.000000 19.670740 2.427745 -0.811865 53.897429 4.832434 -2.357267 9.569750 19.356060 2.010463 0.000000 0.000000 0.000000 
-0.000543 0.944685 -0.000295 -1.986622 3.192261 4.334523 5.551247 -0.190511 -0.639547 3.759069 -0.051582 -5.072724 11.944524 22.828136 28.498798 0.000000 0.000000 0.000000 -5.655726 0.438378 -5.711805 0.733113 -0.074960 0.211765 -0.272874 -6.539124 17.689549 0.000000 0.000000 0.000000 0.546443 0.036667 -1.133884 -0.042404 0.070577 -1.468326 1.653738 -1.459296 -2.483179 -0.550745 0.985817 -8.318469 0.000000 0.000000 0.000000 -21.635381 0.417244 -2.537702 -52.765094 -6.552284 -2.764392 -12.645170 -18.874980 2.738100 0.000000 0.000000 0.000000 19.434442 2.529340 -0.743762 54.129061 5.484708 -2.071902 9.572799 18.832974 1.948871 0.000000 0.000000 0.000000 
-0.000649 0.944603 -0.000630 -1.924092 3.396667 4.216839 5.412544 -0.181614 -0.496338 3.929230 -0.051565 -5.218305 11.804817 22.702262 28.423799 0.000000 0.000000 0.000000 -5.612451 0.430458 -5.620592 0.568624 -0.053057 0.319947 -0.386048 -6.680729 17.625783 0.000000 0.000000 0.000000 0.479554 0.034009 -1.051704 -0.031602 0.065050 -1.430274 1.485580 -1.742715 -2.192828 -0.535404 0.980528 -8.493283 0.000000 0.000000 0.000000 -21.611291 0.170002 -2.352280 -52.982474 -7.033586 -2.601710 -12.350272 -18.588668 2.654322 0.000000 0.000000 0.000000 19.582709 2.936162 -0.558466 54.303613 5.875105 -1.928899 9.295538 19.064319 1.933020 0.000000 0.000000 0.000000 
-0.000594 0.944759 -0.001158 -1.964050 3.457125 4.033894 5.287396 -0.173883 -0.432528 4.228747 -0.079415 -5.068191 11.754971 22.656605 28.420200 0.000000 0.000000 0.000000 -5.400933 0.427327 -5.515179 0.273654 -0.014917 0.444354 -0.408261 -6.714373 17.651013 0.000000 0.000000 0.000000 0.508068 0.034956 -1.076348 -0.057928 0.071619 -1.276279 1.394473 -1.756506 -1.858099 -0.743368 1.077075 -7.779979 0.000000 0.000000 0.000000 -21.672192 -0.318029 -2.084515 -52.974180 -7.500141 -2.428949 -11.927904 -18.555414 2.583517 0.000000 0.000000 0.000000 19.755708 3.248205 -0.380955 54.275742 6.512517 -1.677869 9.076177 18.984303 1.895362 0.000000 0.000000 0.000000 
-0.000466 0.944784 -0.001837 -1.941824 3.646474 4.008401 5.054626 -0.171073 -0.478198 4.611100 -0.099761 -5.093530 11.631100 22.545770 28.383753 0.000000 0.000000 0.000000 -5.409736 0.424788 -5.524956 0.246727 -0.009956 0.500528 -0.499369 -6.844394 17.687558 0.000000 0.000000 0.000000 0.533197 0.035374 -1.095659 -0.102047 0.084062 -1.061376 1.377284 -2.008632 -1.853258 -0.907397 1.178289 -7.745488 0.000000 0.000000 0.000000 -21.202728 -0.887740 -1.673833 -53.440406 -7.815072 -2.318718 -11.644639 -18.256178 2.500268 0.000000 0.000000 0.000000 19.735726 3.672571 -0.188425 54.184215 7.214801 -1.353250 8.852033 18.778924 1.835218 0.000000 0.000000 0.000000 
-0.000333 0.945037 -0.002538 -1.968525 3.743752 3.810391 4.875662 -0.159740 -0.366426 4.974454 -0.125923 -5.034802 11.542337 22.461427 28.410959 0.000000 0.000000 0.000000 -5.265413 0.413400 -5.307779 0.038671 0.012276 0.447504 -0.520172 -6.886641 17.788759 0.000000 0.000000 0.000000 0.640066 0.033284 -1.067989 -0.176181 0.119468 -1.077493 1.282009 -2.098626 -1.297007 -1.219659 1.370009 -7.379259 0.000000 0.000000 0.000000 -20.939438 -1.401628 -1.341605 -53.532637 -8.318516 -2.155463 -11.444385 -18.197913 2.465099 0.000000 0.000000 0.000000 19.817401 4.158562 0.090716 53.899593 7.956136 -1.075191 8.431353 18.699899 1.770763 0.000000 0.000000 0.000000 
-0.000224 0.945182 -0.003137 -1.914003 3.967938 3.700853 4.874197 -0.154252 -0.222974 4.888327 -0.104942 -5.235041 11.381430 22.311525 28.348587 0.000000 0.000000 0.000000 -5.404769 0.399598 -5.191214 0.188480 -0.004619 0.466599 -0.611527 -7.019532 17.860144 0.000000 0.000000 0.000000 0.652787 0.028382 -0.958664 -0.217657 0.129533 -0.828127 1.259499 -2.224382 -1.076874 -1.374463 1.494473 -7.736774 0.000000 0.000000 0.000000 -20.783437 -1.745452 -1.126499 -53.481063 -8.646833 -2.031196 -11.086916 -18.071976 2.393161 0.000000 0.000000 0.000000 19.655839 4.492840 0.291487 53.823677 8.630869 -0.797438 8.227903 18.422892 1.714365 0.000000 0.000000 0.000000 
-0.000178 0.945323 -0.003588 -1.904295 4.285291 3.363569 4.944470 -0.144299 0.039311 4.785217 -0.098284 -5.229958 11.173371 22.121741 28.178736 0.000000 0.000000 0.000000 -5.411157 0.379327 -4.966925 0.213346 0.003329 0.781288 -0.753503 -7.209187 17.870248 0.000000 0.000000 0.000000 0.633481 0.015001 -0.636618 -0.111939 0.070538 -0.566584 1.199691 -2.409851 -0.824723 -1.423899 1.521990 -7.596705 0.000000 0.000000 0.000000 -20.828573 -2.282259 -0.822020 -53.108710 -8.789090 -1.986314 -10.777886 -18.090109 2.349102 0.000000 0.000000 0.000000 19.710221 4.997328 0.572721 53.361726 9.213633 -0.565337 7.690549 18.090116 1.607306 0.000000 0.000000 0.000000 
-0.000150 0.945442 -0.004066 -1.915656 4.473377 3.069476 4.966543 -0.136716 0.202581 4.789481 -0.108549 -5.084604 11.051624 22.009658 28.058961 0.000000 0.000000 0.000000 -5.372526 0.365716 -4.805665 0.185749 0.016800 1.074160 -0.835514 -7.317080 17.870427 0.000000 0.000000 0.000000 0.619561 0.000665 -0.294495 -0.053803 0.027500 -0.188472 1.173884 -2.371142 -0.623999 -1.474581 1.581089 -7.925177 0.000000 0.000000 0.000000 -20.652635 -2.954198 -0.465117 -53.089271 -8.974789 -1.919496 -10.432924 -17.877017 2.263925 0.000000 0.000000 0.000000 19.712221 5.528392 0.909435 52.953336 9.540331 -0.452522 7.490055 17.872118 1.563574 0.000000 0.000000 0.000000 
-0.000182 0.945605 -0.004589 -1.944552 4.719799 2.766912 5.036410 -0.125794 0.497799 4.758944 -0.098454 -5.190576 10.878899 21.847881 27.960402 0.000000 0.000000 0.000000 -5.266672 0.349987 -4.587535 0.085976 0.036741 1.292987 -0.941259 -7.461839 17.904182 0.000000 0.000000 0.000000 0.626610 -0.014020 0.047549 -0.014297 -0.005730 0.140614 1.171943 -2.351880 -0.316985 -1.646571 1.709346 -7.973334 0.000000 0.000000 0.000000 -20.579230 -3.592161 -0.134304 -52.948724 -9.126026 -1.875408 -10.015054 -17.921927 2.202835 0.000000 0.000000 0.000000 19.737402 6.190712 1.324397 52.648695 9.957634 -0.314826 7.321970 17.759212 1.535623 0.000000 0.000000 0.000000 
-0.000215 0.945712 -0.005177 -1.996510 4.941490 2.601787 5.158903 -0.135715 0.384834 4.674201 -0.117609 -4.839437 10.763332 21.748673 27.798447 0.000000 0.000000 0.000000 -5.211188 0.346001 -4.574646 0.114449 0.043209 1.587402 -1.043473 -7.604278 17.940326 0.000000 0.000000 0.000000 0.623001 -0.029631 0.404600 0.042242 -0.047601 0.453456 1.213449 -2.201680 -0.085220 -1.632431 1.733834 -8.358842 0.000000 0.000000 0.000000 -20.349471 -3.934277 0.011847 -52.820117 -9.226134 -1.839453 -10.114951 -18.057071 2.230252 0.000000 0.000000 0.000000 19.622948 6.560098 1.610755 52.426798 10.281525 -0.216823 7.390081 17.732844 1.550152 0.000000 0.000000 0.000000 
